<?xml version="1.0" encoding="UTF-8"?>
<!DOCTYPE svg PUBLIC "-//W3C//DTD SVG 1.1//EN" "http://www.w3.org/Graphics/SVG/1.1/DTD/svg11.dtd">
<!-- Creator: CorelDRAW 2018 (64-Bit) -->
<svg xmlns="http://www.w3.org/2000/svg" xml:space="preserve" width="243.681mm" height="53.975mm" version="1.1" style="shape-rendering:geometricPrecision; text-rendering:geometricPrecision; image-rendering:optimizeQuality; fill-rule:evenodd; clip-rule:evenodd"
viewBox="0 0 25322.94 5608.99"
 xmlns:xlink="http://www.w3.org/1999/xlink">
 <defs>
  <style type="text/css">
   <![CDATA[
    .fil0 {fill:#FF6600}
   ]]>
  </style>
 </defs>
 <g id="Layer_x0020_1">
  <metadata id="CorelCorpID_0Corel-Layer"/>
  <path class="fil0" d="M6167.25 3992.17l0 -929.13 -259.85 0 0 -382.77 259.85 0 0 -873.48 1083.95 0c237.21,0 418.72,58.02 544.59,173.46 118.33,109.59 177.45,262.14 177.45,457.03 0,359.55 -184.4,564.28 -552.11,615.33l581.12 939.57 -477.89 0 -550.38 -929.13 -399.65 0 0 929.13 -407.09 0zm-2435.39 0l796.94 -1823.43 -501.1 0 0 -361.96 905.93 0 924.46 2185.39 -434.98 0 -166.47 -410.65 -926.23 0 -167.04 410.65 -431.5 0zm-1469.05 319.54l0 -288.79c-285.94,-41.17 -522.57,-167.04 -711.08,-378.77 -187.35,-208.77 -280.69,-456.4 -280.69,-744.09 0,-320.71 113.07,-591.02 339.85,-810.8 227.94,-218.68 505.17,-327.71 832.85,-327.71 327.71,0 604.35,109.03 831.13,327.71 227.93,219.78 341.59,490.09 341.59,810.8 0,287.69 -93.96,535.31 -281.89,744.09 -187.88,211.73 -424.52,337.6 -709.9,378.77l0 288.79 -361.86 0zm5849.67 -319.54l796.86 -1823.43 -501.1 0 0 -361.96 905.92 0 924.51 2185.39 -434.98 0 -166.46 -410.65 -926.2 0 -167.07 410.65 -431.47 0zm12544.11 -119.06l0 -1802.53 -640.28 0 0 -382.8 1684.24 0 0 382.8 -640.29 0 0 1802.53 -403.67 0zm-2899.27 -890.82l0 -1294.52 403.66 0 0 1206.4c0,194.25 55.64,350.86 166.46,468.04 105.54,113.07 238.94,169.89 400.71,169.89 161.82,0 297.54,-57.38 407.76,-172.83 106.13,-115.39 159.5,-270.84 159.5,-465.1l0 -1206.4 403.62 0 0 1294.52c0,259.27 -87.54,478.47 -263.28,657.71 -186.18,185.57 -421.65,278.38 -707.61,278.38 -285.32,0 -520.21,-92.81 -704.04,-278.38 -178.1,-179.24 -266.79,-398.44 -266.79,-657.71zm-1723.14 1210.41l0 -288.8c-285.95,-41.16 -522.58,-167.04 -711.04,-378.76 -187.35,-208.78 -280.75,-456.41 -280.75,-744.1 0,-320.7 113.13,-591.01 339.91,-810.8 227.89,-218.68 505.12,-327.7 832.85,-327.7 327.65,0 604.34,109.02 831.08,327.7 227.93,219.79 341.6,490.1 341.6,810.8 0,287.69 -93.97,535.31 -281.86,744.1 -187.94,211.72 -424.56,337.6 -709.88,378.76l0 288.8 -361.92 0zm5983.06 -1210.41l0 -1294.52 403.66 0 0 1206.4c0,194.25 55.65,350.86 166.46,468.04 105.55,113.07 238.95,169.89 400.77,169.89 161.77,0 297.53,-57.38 407.71,-172.83 106.12,-115.39 159.5,-270.84 159.5,-465.1l0 -1206.4 403.66 0 0 1294.52c0,259.27 -87.59,478.47 -263.32,657.71 -186.19,185.57 -421.61,278.38 -707.56,278.38 -285.33,0 -520.27,-92.81 -704.1,-278.38 -178.08,-179.24 -266.79,-398.44 -266.79,-657.71zm-9326.69 -223.02l0 2130.38 908.34 -524.46 127.94 -485.99c-48.51,-2.28 -82.87,-57.97 -82.87,-146.86 0,-116.41 58.93,-245.7 131.52,-288.71 72.64,-43 131.52,16.5 131.52,132.96 0,104.29 -47.3,218.86 -109.36,272.54l125.76 328.71 612.11 -353.37 0 -2130.38 -1844.95 1065.18zm-1901.76 -1178.89l1844.95 1065.23 1844.94 -1065.23 -1844.94 -1065.13 -1844.95 1065.13zm-56.85 113.71l0 2130.38 1844.95 1065.18 0 -2130.38 -1844.95 -1065.18zm-10731.94 -1694.1l25322.94 0 0 5608.99 -25322.94 0 0 -5608.99z"/>
 </g>
</svg>
