<?xml version="1.0" encoding="UTF-8"?>
<!DOCTYPE svg PUBLIC "-//W3C//DTD SVG 1.1//EN" "http://www.w3.org/Graphics/SVG/1.1/DTD/svg11.dtd">
<!-- Creator: CorelDRAW 2018 (64-Bit) -->
<svg xmlns="http://www.w3.org/2000/svg" xml:space="preserve" width="93.7441mm" height="20.0087mm" version="1.1" style="shape-rendering:geometricPrecision; text-rendering:geometricPrecision; image-rendering:optimizeQuality; fill-rule:evenodd; clip-rule:evenodd"
viewBox="0 0 944.1 201.51"
 xmlns:xlink="http://www.w3.org/1999/xlink">
 <defs>
  <style type="text/css">
   <![CDATA[
    .fil0 {fill:#FEFEFE}
    .fil1 {fill:#FF6600;fill-rule:nonzero}
   ]]>
  </style>
 </defs>
 <g id="Layer_x0020_1">
  <metadata id="CorelCorpID_0Corel-Layer"/>
  <g id="_1956302513632">
   <path class="fil0" d="M124.63 116.73l-0.71 2.53c-0.03,0.08 -0.08,0.16 -0.15,0.23l-2.14 1.87c-0.08,0.07 -0.14,0.17 -0.16,0.26 -0.01,0.09 0.02,0.16 0.09,0.16l1.79 0.28c0.06,0.01 0.09,0.05 0.09,0.13l-0.08 2.27c-0,0.09 0.04,0.13 0.11,0.13 0.07,-0 0.16,-0.06 0.23,-0.15l1.82 -2.36c0.06,-0.08 0.13,-0.13 0.2,-0.15l2.09 -0.47c0.08,-0.02 0.16,-0.08 0.22,-0.18 0.06,-0.1 0.08,-0.19 0.06,-0.26l-0.67 -1.73c-0.02,-0.06 -0.01,-0.14 0.04,-0.22l1.37 -2.56c0.05,-0.1 0.06,-0.19 0.02,-0.24 -0.04,-0.05 -0.11,-0.06 -0.2,-0.01l-2.23 1.29c-0.07,0.04 -0.14,0.05 -0.18,0.01l-1.25 -1.12c-0.05,-0.04 -0.12,-0.03 -0.21,0.03 -0.08,0.06 -0.15,0.16 -0.18,0.25zm-34.41 -13.36l0 98.13 23.8 -13.74c1.81,-1.58 4.44,-4.24 6.18,-7.6 2.9,-5.57 5.94,-11.71 11.1,-11.91 -0.39,-1.81 -1.36,-5.1 -1.36,-5.1 0,0 -1.39,0.5 -1.82,0.47 -0.1,-1.91 -0.69,-7.18 -0.69,-7.18l-2.24 0.14 2.04 -14.09 -1.33 -1.73 0.95 -1.89 0 -3.62c0,0 -0.98,-4.41 -0.83,-6.34 -0.39,0.03 -0.88,0.2 -1.13,0.39 -0.24,0.19 -0.54,-0.01 -0.22,-0.39 0.32,-0.38 0.93,-0.58 1.09,-0.66 0.16,-0.07 0.03,-0.45 -0.27,-0.37 -0.3,0.08 -1.22,0.19 -1.22,0.19 0,0 -0.39,0.13 -0.25,-0.28 0.14,-0.42 1.24,-0.56 1.46,-0.63 0.22,-0.07 0.47,-0.51 0.09,-0.87 -0.38,-0.36 -0.93,-0.22 -0.74,-0.82 0.19,-0.6 0.73,-0.25 0.83,-0.08 0.11,0.18 0.52,0.67 0.72,0.56 0.2,-0.11 0.04,-0.83 -0.14,-1.1 -0.18,-0.27 -0.38,-0.57 -0.13,-0.83 0.25,-0.27 1.09,-0.46 1.13,1.44 0.04,1.89 0.27,2.87 0.52,3.38 0.24,0.52 1.42,2.58 1.08,4.94 0.83,1.15 1.44,2.37 1.44,2.37l1.35 -0.9 0.3 -1.24c0,0 -1.57,-0.75 -0.14,-3.65 1.42,-2.9 2.61,-4.97 2.61,-4.97l-1.25 -0.5c0,0 1.24,-1.3 2.92,-2 -0.32,-0.27 -0.72,-0.57 -0.72,-0.57 0,0 5.46,-2.33 6.18,1.21 0.11,0.35 0.06,1.42 0.5,2.1 0.45,0.67 0.42,1.9 -0.66,3.89 -1.09,1.99 -2.17,3.39 -4.11,4.83 0.98,0.45 5.44,2.53 6.98,4.34 -0.8,1.29 -0.95,1.52 -0.95,1.52l2.53 3.38c0,0 2.24,0.23 1.78,2.01 -0.06,0.61 -0.44,1.17 -1.11,1.97 -0.02,0.64 -0.55,1.07 -0.69,0.35 -0.14,-0.72 -0.42,-2.3 -0.83,-2 -0.42,0.3 -0.31,0.67 -0.28,0.76 0.03,0.09 0.12,0.47 -0.26,0.8 -0.38,0.33 -0.6,-0.42 -0.51,-1.12 0.09,-0.7 0.4,-1.49 -0.26,-1.87 -0.66,-0.37 -2.45,-1.91 -2.45,-1.91l-0.89 1.18 -2.12 -1.44 1.48 5.81 -0.67 0.41 2.11 6.91 -1.23 1.42 0.23 1.67c0,0 5.75,-6.21 9.57,-3.32 -1.36,1.4 -2.12,2.28 -2.61,3.47 2.84,-2.92 8.5,-7.13 9.54,-1.91 2.15,-1.44 3.24,-0.61 3.62,0.86 0.34,1.34 2.37,1.53 4.77,0.7l10.26 -5.92 0 -98.14 -84.99 49.07zm27.52 17.38c-0.63,0.37 -1.15,1.19 -1.15,1.82 0,0.64 0.52,0.85 1.15,0.48 0.63,-0.37 1.15,-1.19 1.15,-1.82 0,-0.63 -0.51,-0.85 -1.15,-0.47zm-6.3 3.5c-0.46,0.27 -0.83,0.86 -0.83,1.32 0,0.46 0.37,0.61 0.83,0.34 0.46,-0.27 0.83,-0.86 0.83,-1.32 0,-0.46 -0.37,-0.61 -0.83,-0.34zm23.76 -21.2c-0.46,0.27 -0.83,0.86 -0.83,1.32 0,0.46 0.37,0.61 0.83,0.34 0.46,-0.27 0.83,-0.86 0.83,-1.32 0,-0.46 -0.37,-0.61 -0.83,-0.34zm-12.35 34.94c-0.46,0.27 -0.83,0.86 -0.83,1.32 0,0.46 0.37,0.61 0.83,0.34 0.46,-0.27 0.83,-0.86 0.83,-1.32 0,-0.46 -0.37,-0.61 -0.83,-0.34zm25.3 -38.35c-0.46,0.27 -0.83,0.86 -0.83,1.32 0,0.46 0.37,0.61 0.83,0.35 0.46,-0.27 0.83,-0.86 0.83,-1.32 0,-0.46 -0.37,-0.62 -0.83,-0.34zm-3.06 18.86c-0.46,0.27 -0.83,0.86 -0.83,1.32 0,0.46 0.37,0.61 0.83,0.34 0.46,-0.27 0.83,-0.86 0.83,-1.32 0,-0.46 -0.37,-0.61 -0.83,-0.34zm-14.07 3.67c-0.46,0.27 -0.83,0.86 -0.83,1.32 0,0.46 0.37,0.62 0.83,0.34 0.46,-0.27 0.83,-0.86 0.83,-1.32 0,-0.46 -0.37,-0.62 -0.83,-0.35zm-9.61 7.35c-0.29,0.17 -0.53,0.55 -0.53,0.84 0,0.29 0.24,0.39 0.53,0.22 0.29,-0.17 0.53,-0.55 0.53,-0.84 0,-0.29 -0.24,-0.39 -0.53,-0.22zm19.93 -15.9c-0.29,0.17 -0.53,0.55 -0.53,0.84 0,0.29 0.24,0.39 0.53,0.22 0.29,-0.17 0.53,-0.55 0.53,-0.84 0,-0.29 -0.24,-0.39 -0.53,-0.22zm-8.32 -1.87c-0.29,0.17 -0.53,0.55 -0.53,0.84 0,0.29 0.24,0.39 0.53,0.22 0.29,-0.17 0.53,-0.55 0.53,-0.84 0,-0.29 -0.24,-0.39 -0.53,-0.22zm-10.46 -3.81c-0.3,0.17 -0.53,0.55 -0.53,0.84 0,0.29 0.24,0.39 0.53,0.22 0.29,-0.17 0.53,-0.55 0.53,-0.84 0,-0.3 -0.24,-0.39 -0.53,-0.22zm15.25 -2.26l-0.62 2.2c-0.02,0.07 -0.07,0.14 -0.13,0.19l-1.87 1.63c-0.07,0.06 -0.12,0.15 -0.14,0.23 -0.01,0.08 0.02,0.13 0.08,0.14l1.56 0.24c0.05,0.01 0.08,0.05 0.08,0.11l-0.07 1.98c-0,0.08 0.03,0.12 0.1,0.12 0.06,-0 0.14,-0.05 0.2,-0.13l1.58 -2.05c0.05,-0.07 0.11,-0.11 0.17,-0.13l1.82 -0.41c0.07,-0.01 0.14,-0.07 0.19,-0.16 0.05,-0.08 0.07,-0.16 0.05,-0.22l-0.58 -1.51c-0.02,-0.05 -0.01,-0.12 0.03,-0.19l1.2 -2.23c0.05,-0.09 0.05,-0.16 0.02,-0.21 -0.04,-0.04 -0.09,-0.05 -0.17,-0.01l-1.94 1.12c-0.06,0.04 -0.12,0.04 -0.16,0.01l-1.08 -0.97c-0.04,-0.04 -0.11,-0.03 -0.18,0.03 -0.07,0.05 -0.13,0.13 -0.15,0.22zm2.11 -10.68l-0.71 1.88c-0.02,0.06 -0.06,0.12 -0.12,0.16l-1.61 1.19c-0.06,0.04 -0.11,0.11 -0.13,0.18 -0.02,0.07 -0,0.12 0.04,0.14l1.17 0.44c0.04,0.02 0.06,0.05 0.05,0.11l-0.27 1.76c-0.01,0.07 0.02,0.11 0.07,0.12 0.05,0.01 0.11,-0.03 0.17,-0.09l1.44 -1.61c0.05,-0.05 0.1,-0.08 0.15,-0.09l1.44 -0.1c0.05,-0 0.12,-0.05 0.17,-0.11 0.05,-0.07 0.07,-0.14 0.06,-0.19l-0.28 -1.44c-0.01,-0.05 0.01,-0.11 0.04,-0.17l1.16 -1.82c0.04,-0.07 0.06,-0.14 0.04,-0.19 -0.02,-0.05 -0.07,-0.06 -0.13,-0.03l-1.61 0.72c-0.05,0.02 -0.09,0.02 -0.12,-0.02l-0.73 -1.03c-0.03,-0.04 -0.08,-0.04 -0.14,-0 -0.06,0.04 -0.12,0.1 -0.14,0.17zm-11.48 10.32l-0.52 1.37c-0.02,0.04 -0.05,0.09 -0.09,0.11l-1.17 0.87c-0.05,0.03 -0.08,0.08 -0.09,0.13 -0.01,0.05 -0,0.09 0.03,0.1l0.85 0.32c0.03,0.01 0.04,0.04 0.03,0.08l-0.19 1.28c-0.01,0.05 0.01,0.08 0.05,0.09 0.04,0 0.08,-0.02 0.12,-0.06l1.04 -1.17c0.04,-0.04 0.07,-0.06 0.11,-0.06l1.05 -0.07c0.04,-0 0.08,-0.03 0.12,-0.08 0.04,-0.05 0.05,-0.1 0.04,-0.14l-0.21 -1.04c-0.01,-0.04 0,-0.08 0.03,-0.12l0.84 -1.33c0.03,-0.05 0.04,-0.1 0.03,-0.13 -0.01,-0.04 -0.05,-0.04 -0.09,-0.02l-1.17 0.52c-0.04,0.02 -0.07,0.01 -0.09,-0.01l-0.53 -0.75c-0.02,-0.03 -0.06,-0.03 -0.1,-0 -0.05,0.03 -0.08,0.07 -0.1,0.13zm-12.34 9.64l0.07 1.14c0,0.04 -0.02,0.08 -0.05,0.12l-0.93 1.28c-0.04,0.05 -0.05,0.1 -0.04,0.14 0.01,0.04 0.04,0.05 0.08,0.04l1.15 -0.38c0.04,-0.01 0.07,-0 0.08,0.03l0.41 0.87c0.02,0.03 0.05,0.04 0.09,0.02 0.04,-0.02 0.08,-0.06 0.11,-0.12l0.63 -1.37c0.02,-0.05 0.06,-0.08 0.09,-0.11l1.19 -0.74c0.04,-0.03 0.08,-0.08 0.1,-0.13 0.02,-0.05 0.01,-0.09 -0.02,-0.11l-0.76 -0.47c-0.02,-0.01 -0.03,-0.05 -0.02,-0.09l0.32 -1.33c0.01,-0.05 -0,-0.09 -0.04,-0.1 -0.03,-0.01 -0.08,0.01 -0.12,0.05l-1.1 1.08c-0.04,0.04 -0.07,0.05 -0.11,0.05l-0.98 -0.08c-0.04,-0 -0.08,0.02 -0.12,0.07 -0.04,0.05 -0.06,0.1 -0.06,0.14zm-1.61 14.28l-0.41 1.35c-0.01,0.05 -0.04,0.09 -0.08,0.12l-1.15 0.97c-0.05,0.04 -0.08,0.09 -0.08,0.13 -0.01,0.05 0.01,0.08 0.04,0.09l0.93 0.19c0.03,0.01 0.05,0.03 0.05,0.07l-0.08 1.23c-0,0.05 0.02,0.08 0.06,0.07 0.04,0 0.08,-0.03 0.12,-0.08l0.99 -1.24c0.03,-0.04 0.07,-0.07 0.11,-0.07l1.1 -0.21c0.04,-0.01 0.09,-0.04 0.12,-0.09 0.03,-0.05 0.05,-0.1 0.03,-0.14l-0.32 -0.95c-0.01,-0.03 -0,-0.07 0.02,-0.12l0.75 -1.36c0.03,-0.05 0.04,-0.1 0.02,-0.13 -0.02,-0.03 -0.06,-0.03 -0.1,-0.01l-1.18 0.65c-0.04,0.02 -0.07,0.02 -0.09,0l-0.63 -0.63c-0.03,-0.03 -0.07,-0.02 -0.11,0.01 -0.04,0.03 -0.08,0.08 -0.1,0.13zm3.3 6.67l-0.41 1.35c-0.02,0.05 -0.04,0.09 -0.08,0.12l-1.15 0.97c-0.04,0.04 -0.07,0.09 -0.08,0.14 -0.01,0.05 0.01,0.08 0.04,0.09l0.93 0.19c0.03,0.01 0.05,0.03 0.05,0.07l-0.08 1.23c-0,0.05 0.02,0.07 0.06,0.07 0.04,0 0.08,-0.03 0.12,-0.08l0.98 -1.23c0.03,-0.04 0.07,-0.07 0.1,-0.07l1.1 -0.21c0.04,-0.01 0.08,-0.04 0.12,-0.09 0.03,-0.05 0.05,-0.1 0.03,-0.14l-0.32 -0.95c-0.01,-0.03 -0,-0.07 0.02,-0.12l0.76 -1.36c0.03,-0.05 0.03,-0.1 0.02,-0.13 -0.02,-0.03 -0.06,-0.03 -0.1,-0.01l-1.18 0.65c-0.04,0.02 -0.07,0.02 -0.09,0l-0.63 -0.63c-0.03,-0.03 -0.07,-0.02 -0.11,0.01 -0.04,0.03 -0.08,0.08 -0.1,0.13zm18.48 -19.57l-0.41 1.35c-0.01,0.05 -0.04,0.09 -0.08,0.12l-1.15 0.96c-0.04,0.04 -0.07,0.09 -0.08,0.14 -0.01,0.05 0.01,0.08 0.04,0.09l0.93 0.19c0.03,0.01 0.05,0.03 0.04,0.07l-0.08 1.23c-0,0.05 0.02,0.07 0.06,0.07 0.04,-0 0.08,-0.03 0.12,-0.08l0.98 -1.24c0.03,-0.04 0.07,-0.07 0.11,-0.07l1.1 -0.21c0.04,-0.01 0.09,-0.04 0.12,-0.09 0.03,-0.05 0.05,-0.1 0.03,-0.13l-0.32 -0.95c-0.01,-0.03 -0,-0.07 0.02,-0.12l0.76 -1.36c0.03,-0.05 0.03,-0.1 0.02,-0.13 -0.02,-0.03 -0.06,-0.03 -0.1,-0.01l-1.19 0.65c-0.04,0.02 -0.07,0.02 -0.09,0l-0.63 -0.63c-0.02,-0.02 -0.06,-0.02 -0.11,0.01 -0.05,0.03 -0.08,0.08 -0.09,0.13zm10.89 -8.17l-0.71 1.88c-0.02,0.06 -0.07,0.12 -0.12,0.16l-1.61 1.19c-0.06,0.05 -0.11,0.11 -0.13,0.18 -0.02,0.07 -0.01,0.12 0.04,0.14l1.17 0.44c0.04,0.02 0.06,0.05 0.05,0.11l-0.26 1.76c-0.01,0.07 0.01,0.11 0.07,0.12 0.05,0.01 0.11,-0.03 0.16,-0.09l1.44 -1.61c0.05,-0.05 0.1,-0.08 0.15,-0.09l1.44 -0.1c0.05,-0 0.12,-0.05 0.17,-0.11 0.05,-0.07 0.07,-0.14 0.06,-0.19l-0.28 -1.44c-0.01,-0.05 0.01,-0.11 0.04,-0.17l1.16 -1.82c0.04,-0.07 0.06,-0.14 0.04,-0.19 -0.02,-0.05 -0.07,-0.06 -0.13,-0.03l-1.61 0.72c-0.05,0.02 -0.09,0.02 -0.12,-0.02l-0.73 -1.03c-0.03,-0.04 -0.08,-0.04 -0.14,-0 -0.06,0.04 -0.11,0.1 -0.14,0.17zm-13.36 48.09l2.1 3.25 0.83 -0.5 1.32 2.91c0,0 -1.49,1.68 -1.16,4.5 -1.68,1.06 -2.34,1.37 -2.34,1.37 0,0 0.33,-1.04 -0.46,-1.83 -0.79,-0.79 -0.95,-4.43 -0.95,-4.43l1.12 -0.73 -0.46 -4.56z"/>
   <polygon class="fil0" points="2.62,49.07 87.61,98.14 172.59,49.07 87.61,0 "/>
   <polygon class="fil0" points="-0,54.3 -0,152.44 84.99,201.51 84.99,103.37 "/>
   <polygon class="fil1" points="5.24,152.44 90.22,201.51 90.22,103.37 5.24,54.3 "/>
   <path class="fil1" d="M214.39 71.67l42.14 0 0 53.09 -42.14 0 0 47.06 -40.33 0 0 -140.61 85.7 0 0 37.26 -45.37 0 0 3.21zm119.88 21.46l23.48 78.69 -43.34 0 -10.03 -39.53 -10.63 39.53 -38.93 0 23.48 -78.69 -20.07 -61.92 42.53 0 7.42 32.71 7.22 -32.71 41.93 0 -23.08 61.92zm118.68 31.64c0,13.24 -3.88,24.74 -11.64,34.48 -7.76,9.75 -17.99,14.63 -30.71,14.63 -12.84,0 -23.11,-4.88 -30.8,-14.63 -7.69,-9.74 -11.54,-21.24 -11.54,-34.48l0 -46.52c0,-13.24 3.85,-24.7 11.54,-34.38 7.69,-9.68 17.96,-14.52 30.8,-14.52 12.72,0 22.95,4.84 30.71,14.52 7.76,9.68 11.64,21.14 11.64,34.38l0 46.52zm-40.33 -47.96c0,-2.67 -0.6,-4.81 -1.81,-6.42 -1.21,-1.6 -2.81,-2.4 -4.82,-2.4 -2.14,0 -3.81,0.8 -5.01,2.4 -1.2,1.61 -1.81,3.75 -1.81,6.42l0 49.37c0,2.67 0.6,4.85 1.81,6.52 1.2,1.67 2.87,2.51 5.01,2.51 2,0 3.61,-0.84 4.82,-2.51 1.21,-1.67 1.81,-3.85 1.81,-6.52l0 -49.37zm82.16 95.01l-26.09 0 0 -140.61 42.94 0 18.47 74.08 0.6 0 0 -74.08 26.09 0 0 140.61 -38.13 0 -23.08 -87.11 -0.8 0 0 87.11zm68.72 -140.61l63.58 0c14.31,0 25.48,4.95 33.52,14.85 8.02,9.9 12.04,21.9 12.04,35.98l0 32.07c0,14.08 -4.02,26.08 -12.04,35.98 -8.04,9.9 -19.21,14.85 -33.52,14.85l-63.58 0 0 -133.73zm40.33 35.58l0 62.57 21.05 0c4.27,0 7.55,-1.57 9.83,-4.71 2.27,-3.14 3.41,-6.91 3.41,-11.33l0 -29.08c0,-4.29 -1.14,-8 -3.41,-11.12 -2.28,-3.14 -5.56,-4.71 -9.83,-4.71l-21.05 0zm104.63 -35.58l80.88 0 0 35.58 -40.55 0 0 16.05 37.94 0 0 35.58 -37.94 0 0 17.44 42.35 0 0 35.57 -82.68 0 0 -140.22zm127.91 0l0 104.64 35.17 0 0 35.57 -75.5 0 0 -140.22 40.33 0z"/>
  </g>
 </g>
</svg>