<?xml version="1.0" encoding="UTF-8"?>
<!DOCTYPE svg PUBLIC "-//W3C//DTD SVG 1.1//EN" "http://www.w3.org/Graphics/SVG/1.1/DTD/svg11.dtd">
<!-- Creator: CorelDRAW 2018 (64-Bit) -->
<svg xmlns="http://www.w3.org/2000/svg" xml:space="preserve" width="218.325mm" height="42.0947mm" version="1.1" style="shape-rendering:geometricPrecision; text-rendering:geometricPrecision; image-rendering:optimizeQuality; fill-rule:evenodd; clip-rule:evenodd"
viewBox="0 0 22301.36 4299.87"
 xmlns:xlink="http://www.w3.org/1999/xlink">
 <defs>
  <style type="text/css">
   <![CDATA[
    .fil0 {fill:black}
   ]]>
  </style>
 </defs>
 <g id="Layer_x0020_1">
  <metadata id="CorelCorpID_0Corel-Layer"/>
  <path class="fil0" d="M4812.78 3417.68l0 -913.3 -255.42 0 0 -376.24 255.42 0 0 -858.61 1065.49 0c233.16,0 411.58,57.02 535.3,170.49 116.32,107.73 174.44,257.7 174.44,449.25 0,353.42 -181.27,554.66 -542.71,604.86l571.22 923.55 -469.75 0 -541 -913.3 -392.84 0 0 913.3 -400.15 0z"/>
  <polygon class="fil0" points="2418.89,3417.68 3202.25,1625.33 2709.7,1625.33 2709.7,1269.53 3600.18,1269.53 4508.88,3417.68 4081.31,3417.68 3917.69,3014.02 3007.23,3014.02 2843.04,3417.68 "/>
  <path class="fil0" d="M974.87 3731.77l0 -283.88c-281.07,-40.46 -513.67,-164.18 -698.96,-372.3 -184.16,-205.22 -275.91,-448.64 -275.91,-731.43 0,-315.24 111.15,-580.94 334.07,-796.97 224.05,-214.95 496.54,-322.12 818.66,-322.12 322.11,0 594.03,107.17 816.95,322.12 224.05,216.03 335.77,481.74 335.77,796.97 0,282.78 -92.36,526.2 -277.1,731.43 -184.67,208.12 -417.27,331.84 -697.78,372.3l0 283.88 -355.71 0z"/>
  <polygon class="fil0" points="6724.87,3417.68 7508.14,1625.33 7015.58,1625.33 7015.58,1269.53 7906.06,1269.53 8814.81,3417.68 8387.24,3417.68 8223.62,3014.02 7313.21,3014.02 7148.97,3417.68 "/>
  <polygon class="fil0" points="19055.22,3300.65 19055.22,1528.83 18425.84,1528.83 18425.84,1152.54 20081.39,1152.54 20081.39,1528.83 19452,1528.83 19452,3300.65 "/>
  <path class="fil0" d="M16205.35 2425.01l0 -1272.47 396.78 0 0 1185.85c0,190.94 54.69,344.88 163.62,460.06 103.74,111.16 234.87,166.99 393.88,166.99 159.06,0 292.47,-56.41 400.82,-169.88 104.32,-113.42 156.79,-266.23 156.79,-457.17l0 -1185.85 396.74 0 0 1272.47c0,254.85 -86.06,470.32 -258.78,646.5 -183.03,182.4 -414.48,273.63 -695.56,273.63 -280.46,0 -511.35,-91.23 -692.04,-273.63 -175.05,-176.18 -262.24,-391.65 -262.24,-646.5z"/>
  <path class="fil0" d="M14511.57 3614.79l0 -283.88c-281.08,-40.47 -513.68,-164.19 -698.92,-372.31 -184.16,-205.22 -275.96,-448.63 -275.96,-731.42 0,-315.24 111.2,-580.94 334.11,-796.98 224.01,-214.95 496.51,-322.11 818.66,-322.11 322.07,0 594.04,107.16 816.91,322.11 224.05,216.04 335.77,481.75 335.77,796.98 0,282.78 -92.36,526.19 -277.04,731.42 -184.72,208.12 -417.32,331.84 -697.78,372.31l0 283.88 -355.75 0z"/>
  <path class="fil0" d="M20392.68 2425.01l0 -1272.47 396.78 0 0 1185.85c0,190.94 54.7,344.88 163.62,460.06 103.75,111.16 234.87,166.99 393.93,166.99 159.02,0 292.47,-56.41 400.78,-169.88 104.31,-113.42 156.79,-266.23 156.79,-457.17l0 -1185.85 396.78 0 0 1272.47c0,254.85 -86.1,470.32 -258.83,646.5 -183.02,182.4 -414.43,273.63 -695.51,273.63 -280.46,0 -511.39,-91.23 -692.09,-273.63 -175.05,-176.18 -262.24,-391.65 -262.24,-646.5z"/>
  <path class="fil0" d="M11224.92 2205.79l0 2094.07 892.86 -515.53 125.76 -477.71c-47.68,-2.23 -81.45,-56.98 -81.45,-144.35 0,-114.43 57.92,-241.52 129.27,-283.79 71.4,-42.27 129.27,16.22 129.27,130.7 0,102.52 -46.49,215.13 -107.49,267.89l123.63 323.1 601.67 -347.35 0 -2094.06 -1813.52 1047.03z"/>
  <polygon class="fil0" points="9355.57,1046.99 11169.09,2094.07 12982.6,1046.99 11169.09,0 "/>
  <polygon class="fil0" points="9299.69,1158.76 9299.69,3252.82 11113.2,4299.87 11113.2,2205.79 "/>
 </g>
</svg>
