<?xml version="1.0" encoding="UTF-8"?>
<!DOCTYPE svg PUBLIC "-//W3C//DTD SVG 1.1//EN" "http://www.w3.org/Graphics/SVG/1.1/DTD/svg11.dtd">
<!-- Creator: CorelDRAW 2018 (64-Bit) -->
<svg xmlns="http://www.w3.org/2000/svg" xml:space="preserve" width="40.6137mm" height="40.6138mm" version="1.1" style="shape-rendering:geometricPrecision; text-rendering:geometricPrecision; image-rendering:optimizeQuality; fill-rule:evenodd; clip-rule:evenodd"
viewBox="0 0 815.48 815.48"
 xmlns:xlink="http://www.w3.org/1999/xlink">
 <defs>
  <style type="text/css">
   <![CDATA[
    .fil0 {fill:#FF6600}
   ]]>
  </style>
 </defs>
 <g id="Layer_x0020_1">
  <metadata id="CorelCorpID_0Corel-Layer"/>
  <path class="fil0" d="M-0 0l815.48 0 0 815.48 -815.48 0 0 -815.48zm281.53 143.78l0 140.82 121.95 70.41 0 -140.81 -121.95 -70.41zm3.76 -7.51l121.95 70.41 121.95 -70.41 -121.95 -70.41 -121.95 70.41zm125.71 77.92l0 140.81 60.04 -34.66 8.46 -32.12c-3.21,-0.15 -5.48,-3.83 -5.48,-9.71 0,-7.7 3.89,-16.24 8.69,-19.08 4.8,-2.84 8.69,1.09 8.69,8.79 0,6.9 -3.13,14.47 -7.23,18.02l8.31 21.73 40.46 -23.36 0 -140.82 -121.95 70.41zm163.09 442.09l0 -85.57 26.68 0 0 79.74c0,12.84 3.68,23.19 11,30.94 6.98,7.48 15.8,11.23 26.49,11.23 10.7,0 19.67,-3.8 26.95,-11.42 7.02,-7.63 10.54,-17.9 10.54,-30.74l0 -79.74 26.68 0 0 85.57c0,17.14 -5.79,31.63 -17.4,43.47 -12.31,12.27 -27.87,18.4 -46.77,18.4 -18.86,0 -34.39,-6.13 -46.54,-18.4 -11.77,-11.85 -17.63,-26.34 -17.63,-43.47zm-395.48 80.01l0 -19.09c-18.9,-2.72 -34.54,-11.04 -47,-25.04 -12.38,-13.8 -18.56,-30.17 -18.56,-49.19 0,-21.2 7.48,-39.07 22.47,-53.59 15.07,-14.45 33.39,-21.66 55.05,-21.66 21.66,0 39.95,7.21 54.93,21.66 15.07,14.53 22.58,32.4 22.58,53.59 0,19.01 -6.21,35.38 -18.63,49.19 -12.42,13.99 -28.06,22.31 -46.92,25.04l0 19.09 -23.92 0zm113.9 -80.01l0 -85.57 26.68 0 0 79.74c0,12.84 3.68,23.19 11,30.94 6.98,7.48 15.79,11.23 26.49,11.23 10.7,0 19.67,-3.8 26.95,-11.42 7.01,-7.63 10.54,-17.9 10.54,-30.74l0 -79.74 26.68 0 0 85.57c0,17.14 -5.79,31.63 -17.4,43.47 -12.3,12.27 -27.87,18.4 -46.77,18.4 -18.86,0 -34.39,-6.13 -46.54,-18.4 -11.77,-11.85 -17.64,-26.34 -17.64,-43.47zm191.64 58.89l0 -119.15 -42.32 0 0 -25.3 111.33 0 0 25.3 -42.32 0 0 119.15 -26.68 0zm79.44 -195.51l52.67 -120.53 -33.12 0 0 -23.92 59.88 0 61.11 144.45 -28.75 0 -11 -27.14 -61.22 0 -11.04 27.14 -28.52 0zm-386.67 21.12l0 -19.09c-18.9,-2.72 -34.54,-11.04 -47,-25.03 -12.38,-13.8 -18.55,-30.17 -18.55,-49.19 0,-21.2 7.48,-39.07 22.47,-53.59 15.07,-14.45 33.39,-21.66 55.05,-21.66 21.66,0 39.95,7.21 54.94,21.66 15.07,14.53 22.58,32.39 22.58,53.59 0,19.02 -6.21,35.38 -18.63,49.19 -12.42,13.99 -28.06,22.31 -46.92,25.03l0 19.09 -23.92 0zm97.11 -21.12l52.67 -120.53 -33.12 0 0 -23.92 59.88 0 61.11 144.45 -28.75 0 -11 -27.14 -61.22 0 -11.04 27.14 -28.52 0zm160.98 0l0 -61.41 -17.18 0 0 -25.3 17.18 0 0 -57.73 71.65 0c15.68,0 27.68,3.83 36,11.46 7.82,7.24 11.73,17.33 11.73,30.21 0,23.77 -12.19,37.3 -36.5,40.67l38.41 62.1 -31.59 0 -36.38 -61.41 -26.41 0 0 61.41 -26.91 0z"/>
 </g>
</svg>
