<?xml version="1.0" encoding="UTF-8"?>
<!DOCTYPE svg PUBLIC "-//W3C//DTD SVG 1.1//EN" "http://www.w3.org/Graphics/SVG/1.1/DTD/svg11.dtd">
<!-- Creator: CorelDRAW 2018 (64-Bit) -->
<svg xmlns="http://www.w3.org/2000/svg" xml:space="preserve" width="72.3321mm" height="83.5229mm" version="1.1" style="shape-rendering:geometricPrecision; text-rendering:geometricPrecision; image-rendering:optimizeQuality; fill-rule:evenodd; clip-rule:evenodd"
viewBox="0 0 1979.36 2285.59"
 xmlns:xlink="http://www.w3.org/1999/xlink">
 <defs>
  <style type="text/css">
   <![CDATA[
    .str3 {stroke:#E6E6E6;stroke-width:23.17;stroke-miterlimit:22.9256}
    .str2 {stroke:#EAEAEA;stroke-width:23.17;stroke-miterlimit:22.9256}
    .str1 {stroke:#EEEEEE;stroke-width:23.17;stroke-miterlimit:22.9256}
    .str0 {stroke:#F3F3F3;stroke-width:23.17;stroke-miterlimit:22.9256}
    .fil3 {fill:none}
    .fil4 {fill:black}
    .fil0 {fill:white}
    .fil6 {fill:black;fill-rule:nonzero}
    .fil1 {fill:#666666;fill-rule:nonzero}
    .fil2 {fill:#FBFBFB;fill-rule:nonzero}
    .fil5 {fill:#FF6600;fill-rule:nonzero}
    .fil7 {fill:white;fill-rule:nonzero}
   ]]>
  </style>
 </defs>
 <g id="Layer_x0020_1">
  <metadata id="CorelCorpID_0Corel-Layer"/>
  <path class="fil0" d="M989.68 0c164.95,95.23 329.9,190.47 494.85,285.7 164.94,95.23 329.89,190.47 494.83,285.7 0,190.47 0,380.93 0,571.4 0,190.47 0,380.94 0,571.4 -164.94,95.24 -329.89,190.47 -494.83,285.7 -164.95,95.24 -329.9,190.47 -494.85,285.7 -164.95,-95.23 -329.9,-190.47 -494.85,-285.7 -164.94,-95.23 -329.89,-190.46 -494.83,-285.7 0,-190.46 0,-380.93 0,-571.4 0,-190.47 0,-380.93 0,-571.4 164.94,-95.23 329.89,-190.47 494.83,-285.7 164.95,-95.23 329.9,-190.47 494.85,-285.7z"/>
  <path class="fil1" d="M993.07 153.53c285.02,164.55 570.05,329.08 855.04,493.66l0 365.39 -13.58 0 0 -357.59 -422.43 -243.89 -422.43 -243.89 -844.86 487.78 0 975.6 844.86 487.78 383.46 -221.4 26.97 0c-136.82,79 -273.63,158.01 -410.43,237.04 -286.1,-165.28 -572.25,-330.49 -858.44,-495.62l0 -991.21c286.13,-165.24 572.28,-330.44 858.44,-495.62l3.39 1.96z"/>
  <path class="fil2" d="M993.07 274.86c249.99,144.33 500,288.64 749.97,433l0 869.88c-251.15,144.92 -502.28,289.91 -753.36,434.96 -251.08,-145.05 -502.21,-290.03 -753.37,-434.96l0 -869.88c251.11,-145.01 502.23,-290 753.37,-434.96l3.39 1.96zm366.5 227.24l-369.9 -213.56 -739.79 427.12 0 854.28 739.79 427.12 739.79 -427.12 0 -854.28 -369.89 -213.56z"/>
  <path class="fil3 str0" d="M989.68 523.38c89.4,51.62 178.81,103.24 268.22,154.86 89.41,51.62 178.81,103.24 268.21,154.86 0,103.24 0,206.47 0,309.71 0,103.24 0,206.48 0,309.71 -89.4,51.62 -178.81,103.24 -268.21,154.86 -89.41,51.62 -178.81,103.24 -268.22,154.86 -89.41,-51.62 -178.81,-103.24 -268.22,-154.86 -89.4,-51.62 -178.81,-103.24 -268.21,-154.86 0,-103.24 0,-206.48 0,-309.71 0,-103.24 0,-206.47 0,-309.71 89.4,-51.62 178.81,-103.24 268.21,-154.86 89.41,-51.62 178.81,-103.24 268.22,-154.86z"/>
  <path class="fil3 str1" d="M989.68 644.7c71.89,41.51 143.79,83.02 215.68,124.52 71.89,41.51 143.79,83.02 215.68,124.52 0,83.02 0,166.03 0,249.05 0,83.02 0,166.03 0,249.05 -71.89,41.51 -143.79,83.02 -215.68,124.52 -71.89,41.51 -143.79,83.02 -215.68,124.53 -71.9,-41.51 -143.79,-83.02 -215.68,-124.53 -71.89,-41.5 -143.78,-83.01 -215.68,-124.52 0,-83.01 0,-166.03 0,-249.05 0,-83.01 0,-166.03 0,-249.05 71.89,-41.51 143.79,-83.01 215.68,-124.52 71.9,-41.51 143.79,-83.02 215.68,-124.52z"/>
  <path class="fil3 str2" d="M989.68 766.03c54.38,31.4 108.76,62.79 163.15,94.19 54.38,31.4 108.76,62.8 163.14,94.19 0,62.8 0,125.59 0,188.39 0,62.8 0,125.59 0,188.39 -54.38,31.4 -108.76,62.8 -163.14,94.19 -54.38,31.4 -108.76,62.8 -163.15,94.19 -54.38,-31.4 -108.76,-62.79 -163.15,-94.19 -54.38,-31.4 -108.76,-62.79 -163.14,-94.19 0,-62.79 0,-125.59 0,-188.39 0,-62.79 0,-125.59 0,-188.39 54.38,-31.4 108.76,-62.79 163.14,-94.19 54.38,-31.4 108.76,-62.79 163.15,-94.19z"/>
  <polygon class="fil3 str3" points="989.68,887.36 1100.29,951.22 1210.9,1015.08 1210.9,1142.8 1210.9,1270.52 1100.29,1334.38 989.68,1398.24 879.07,1334.38 768.46,1270.52 768.46,1142.8 768.46,1015.08 879.07,951.22 "/>
  <polygon class="fil4" points="828.7,1057.44 828.7,1237.78 984.87,1327.94 984.87,1147.61 "/>
  <polygon class="fil4" points="833.51,1047.82 989.68,1137.99 1145.85,1047.82 989.68,957.66 "/>
  <path class="fil4" d="M994.49 1147.61l0 180.33c149.86,-86.53 63.77,-36.82 156.17,-90.16l0 -180.33 -156.17 90.16z"/>
  <path class="fil5" d="M1592.05 1488.9l0 -109.58 34.17 0 0 102.11c0,16.45 4.71,29.7 14.09,39.62 8.93,9.57 20.23,14.38 33.92,14.38 13.7,0 25.19,-4.86 34.52,-14.63 8.98,-9.77 13.5,-22.93 13.5,-39.38l0 -102.11 34.17 0 0 109.58c0,21.94 -7.41,40.5 -22.29,55.67 -15.76,15.71 -35.69,23.57 -59.9,23.57 -24.15,0 -44.04,-7.85 -59.6,-23.57 -15.07,-15.17 -22.58,-33.73 -22.58,-55.67zm-506.46 102.46l0 -24.45c-24.2,-3.49 -44.23,-14.14 -60.19,-32.06 -15.86,-17.67 -23.76,-38.64 -23.76,-62.99 0,-27.15 9.57,-50.03 28.77,-68.63 19.29,-18.51 42.76,-27.74 70.5,-27.74 27.74,0 51.16,9.23 70.35,27.74 19.29,18.61 28.91,41.49 28.91,68.63 0,24.35 -7.95,45.31 -23.86,62.99 -15.91,17.92 -35.94,28.57 -60.09,32.06l0 24.45 -30.63 0zm145.86 -102.46l0 -109.58 34.17 0 0 102.11c0,16.45 4.71,29.7 14.09,39.62 8.93,9.57 20.23,14.38 33.92,14.38 13.7,0 25.18,-4.86 34.51,-14.63 8.98,-9.77 13.5,-22.93 13.5,-39.38l0 -102.11 34.17 0 0 109.58c0,21.94 -7.41,40.5 -22.29,55.67 -15.76,15.71 -35.69,23.57 -59.89,23.57 -24.15,0 -44.04,-7.85 -59.6,-23.57 -15.07,-15.17 -22.58,-33.73 -22.58,-55.67zm245.42 75.41l0 -152.58 -54.2 0 0 -32.4 142.57 0 0 32.4 -54.2 0 0 152.58 -34.17 0z"/>
  <path class="fil6" d="M812 1564.31l67.45 -154.35 -42.42 0 0 -30.63 76.69 0 78.25 184.99 -36.82 0 -14.09 -34.76 -78.4 0 -14.14 34.76 -36.52 0zm-495.16 27.05l0 -24.45c-24.2,-3.49 -44.23,-14.14 -60.19,-32.06 -15.86,-17.67 -23.76,-38.64 -23.76,-62.99 0,-27.15 9.57,-50.03 28.77,-68.63 19.29,-18.51 42.76,-27.74 70.5,-27.74 27.74,0 51.16,9.23 70.35,27.74 19.29,18.61 28.92,41.49 28.92,68.63 0,24.35 -7.95,45.31 -23.86,62.99 -15.91,17.92 -35.94,28.57 -60.09,32.06l0 24.45 -30.64 0zm124.36 -27.05l67.45 -154.35 -42.42 0 0 -30.63 76.68 0 78.26 184.99 -36.82 0 -14.09 -34.76 -78.4 0 -14.14 34.76 -36.53 0zm206.15 0l0 -78.65 -21.99 0 0 -32.4 21.99 0 0 -73.94 91.76 0c20.08,0 35.45,4.91 46.1,14.68 10.02,9.28 15.02,22.19 15.02,38.69 0,30.44 -15.61,47.77 -46.74,52.09l49.19 79.53 -40.45 0 -46.59 -78.65 -33.83 0 0 78.65 -34.46 0z"/>
  <path class="fil6" d="M1830.35 1337.62l0 -17.24c-17.07,-2.46 -31.19,-9.97 -42.45,-22.61 -11.18,-12.46 -16.76,-27.25 -16.76,-44.42 0,-19.15 6.75,-35.28 20.29,-48.4 13.61,-13.06 30.16,-19.57 49.72,-19.57 19.56,0 36.08,6.51 49.62,19.57 13.61,13.12 20.39,29.26 20.39,48.4 0,17.17 -5.61,31.96 -16.83,44.42 -11.22,12.64 -25.34,20.15 -42.38,22.61l0 17.24 -21.61 0z"/>
  <path class="fil5" d="M993.07 396.19c214.97,124.11 429.95,248.2 644.9,372.33l0 475.17 -13.58 0 0 -467.37 -317.36 -183.23 -317.36 -183.23 -634.72 366.45 0 467.37 -13.58 0 0 -475.17c216.08,-124.79 432.18,-249.55 648.29,-374.29l3.39 1.96zm387.07 1269.69c-130.17,75.14 -260.32,150.31 -390.47,225.49 -130.14,-75.18 -260.3,-150.35 -390.47,-225.49l27 0 363.47 209.85 363.47 -209.85 27 0z"/>
  <circle class="fil0" transform="matrix(0.365555 -0.216483 -0 0.586035 1086.33 1223.39)" r="30.45"/>
  <polygon class="fil0" points="1085.05,1231.62 1098.9,1267.84 1071.2,1284.25 "/>
  <path class="fil7" d="M1814.46 1292.54l0 -32.99 -9.23 0 0 -13.59 9.23 0 0 -31.01 38.48 0c8.42,0 14.87,2.06 19.34,6.16 4.2,3.89 6.3,9.31 6.3,16.22 0,12.77 -6.55,20.04 -19.6,21.85l20.63 33.36 -16.97 0 -19.54 -32.99 -14.19 0 0 32.99 -14.45 0z"/>
 </g>
</svg>
