<?xml version="1.0" encoding="UTF-8"?>
<!DOCTYPE svg PUBLIC "-//W3C//DTD SVG 1.1//EN" "http://www.w3.org/Graphics/SVG/1.1/DTD/svg11.dtd">
<!-- Creator: CorelDRAW 2018 (64-Bit) -->
<svg xmlns="http://www.w3.org/2000/svg" xml:space="preserve" width="40.6137mm" height="40.6138mm" version="1.1" style="shape-rendering:geometricPrecision; text-rendering:geometricPrecision; image-rendering:optimizeQuality; fill-rule:evenodd; clip-rule:evenodd"
viewBox="0 0 1706.19 1706.19"
 xmlns:xlink="http://www.w3.org/1999/xlink">
 <defs>
  <style type="text/css">
   <![CDATA[
    .fil0 {fill:black}
   ]]>
  </style>
 </defs>
 <g id="Layer_x0020_1">
  <metadata id="CorelCorpID_0Corel-Layer"/>
  <path class="fil0" d="M-0 0l1706.19 0 0 1706.19 -1706.19 0 0 -1706.19zm589.03 300.82l0 294.63 255.15 147.31 0 -294.62 -255.15 -147.32zm7.86 -15.72l255.15 147.31 255.16 -147.31 -255.16 -147.31 -255.15 147.31zm263.01 163.04l0 294.62 125.62 -72.53 17.69 -67.21c-6.71,-0.32 -11.46,-8.02 -11.46,-20.31 0,-16.1 8.14,-33.98 18.19,-39.93 10.04,-5.95 18.19,2.28 18.19,18.38 0,14.43 -6.55,30.27 -15.13,37.7l17.39 45.46 84.66 -48.87 0 -294.63 -255.16 147.32zm341.24 924.96l0 -179.03 55.82 0 0 166.84c0,26.87 7.7,48.52 23.02,64.73 14.6,15.64 33.05,23.5 55.42,23.5 22.38,0 41.15,-7.94 56.39,-23.9 14.68,-15.96 22.06,-37.46 22.06,-64.33l0 -166.84 55.83 0 0 179.03c0,35.86 -12.11,66.17 -36.41,90.96 -25.75,25.67 -58.31,38.5 -97.86,38.5 -39.46,0 -71.95,-12.83 -97.38,-38.5 -24.63,-24.79 -36.89,-55.1 -36.89,-90.96zm-827.45 167.4l0 -39.94c-39.54,-5.7 -72.27,-23.1 -98.34,-52.38 -25.91,-28.87 -38.83,-63.12 -38.83,-102.91 0,-44.35 15.64,-81.74 47.01,-112.13 31.52,-30.24 69.86,-45.32 115.18,-45.32 45.31,0 83.58,15.08 114.94,45.32 31.52,30.4 47.24,67.78 47.24,112.13 0,39.78 -12.99,74.03 -38.98,102.91 -25.99,29.28 -58.71,46.69 -98.17,52.38l0 39.94 -50.06 0zm238.31 -167.4l0 -179.03 55.83 0 0 166.84c0,26.87 7.7,48.52 23.02,64.73 14.6,15.64 33.04,23.5 55.42,23.5 22.38,0 41.15,-7.94 56.39,-23.9 14.67,-15.96 22.06,-37.46 22.06,-64.33l0 -166.84 55.82 0 0 179.03c0,35.86 -12.11,66.17 -36.41,90.96 -25.74,25.67 -58.31,38.5 -97.86,38.5 -39.46,0 -71.95,-12.83 -97.37,-38.5 -24.63,-24.79 -36.9,-55.1 -36.9,-90.96zm400.97 123.2l0 -249.29 -88.55 0 0 -52.94 232.93 0 0 52.94 -88.55 0 0 249.29 -55.83 0zm166.2 -409.06l110.21 -252.17 -69.3 0 0 -50.06 125.29 0 127.86 302.23 -60.16 0 -23.02 -56.79 -128.09 0 -23.11 56.79 -59.67 0zm-809.01 44.2l0 -39.94c-39.54,-5.69 -72.27,-23.1 -98.34,-52.38 -25.91,-28.88 -38.82,-63.12 -38.82,-102.91 0,-44.35 15.64,-81.74 47.01,-112.13 31.52,-30.24 69.86,-45.32 115.18,-45.32 45.32,0 83.58,15.08 114.94,45.32 31.52,30.39 47.24,67.78 47.24,112.13 0,39.79 -13,74.03 -38.99,102.91 -25.99,29.28 -58.71,46.69 -98.18,52.38l0 39.94 -50.05 0zm203.17 -44.2l110.21 -252.17 -69.3 0 0 -50.06 125.29 0 127.85 302.23 -60.16 0 -23.02 -56.79 -128.09 0 -23.1 56.79 -59.68 0zm336.8 0l0 -128.49 -35.94 0 0 -52.94 35.94 0 0 -120.8 149.91 0c32.81,0 57.91,8.02 75.32,23.98 16.36,15.16 24.55,36.26 24.55,63.21 0,49.73 -25.51,78.04 -76.36,85.1l80.37 129.94 -66.09 0 -76.12 -128.49 -55.26 0 0 128.49 -56.31 0z"/>
 </g>
</svg>
