<?xml version="1.0" encoding="UTF-8"?>
<!DOCTYPE svg PUBLIC "-//W3C//DTD SVG 1.1//EN" "http://www.w3.org/Graphics/SVG/1.1/DTD/svg11.dtd">
<!-- Creator: CorelDRAW 2018 (64-Bit) -->
<svg xmlns="http://www.w3.org/2000/svg" xml:space="preserve" width="40.6137mm" height="40.6138mm" version="1.1" style="shape-rendering:geometricPrecision; text-rendering:geometricPrecision; image-rendering:optimizeQuality; fill-rule:evenodd; clip-rule:evenodd"
viewBox="0 0 1475.62 1475.62"
 xmlns:xlink="http://www.w3.org/1999/xlink">
 <defs>
  <style type="text/css">
   <![CDATA[
    .fil0 {fill:black}
   ]]>
  </style>
 </defs>
 <g id="Layer_x0020_1">
  <metadata id="CorelCorpID_0Corel-Layer"/>
  <path class="fil0" d="M-0 0l1475.62 0 0 1475.62 -1475.62 0 0 -1475.62zm509.42 260.17l0 254.81 220.67 127.41 0 -254.81 -220.67 -127.41zm6.8 -13.6l220.67 127.41 220.68 -127.41 -220.68 -127.41 -220.67 127.41zm227.47 141l0 254.81 108.65 -62.73 15.3 -58.13c-5.81,-0.27 -9.91,-6.93 -9.91,-17.57 0,-13.93 7.04,-29.39 15.73,-34.53 8.69,-5.14 15.73,1.97 15.73,15.9 0,12.48 -5.66,26.18 -13.08,32.6l15.04 39.32 73.22 -42.27 0 -254.81 -220.68 127.41zm295.12 799.96l0 -154.84 48.28 0 0 144.3c0,23.23 6.66,41.96 19.91,55.98 12.63,13.53 28.58,20.32 47.93,20.32 19.35,0 35.59,-6.87 48.77,-20.67 12.69,-13.8 19.07,-32.4 19.07,-55.63l0 -144.3 48.28 0 0 154.84c0,31.01 -10.47,57.23 -31.49,78.67 -22.27,22.2 -50.43,33.3 -84.64,33.3 -34.13,0 -62.22,-11.1 -84.22,-33.3 -21.3,-21.44 -31.91,-47.66 -31.91,-78.67zm-715.63 144.78l0 -34.54c-34.2,-4.93 -62.5,-19.98 -85.05,-45.3 -22.41,-24.97 -33.58,-54.59 -33.58,-89 0,-38.36 13.53,-70.69 40.66,-96.98 27.26,-26.15 60.42,-39.19 99.62,-39.19 39.19,0 72.28,13.04 99.4,39.19 27.26,26.29 40.86,58.62 40.86,96.98 0,34.41 -11.24,64.03 -33.71,89 -22.48,25.32 -50.78,40.38 -84.91,45.3l0 34.54 -43.29 0zm206.1 -144.78l0 -154.84 48.28 0 0 144.3c0,23.23 6.66,41.96 19.91,55.98 12.63,13.53 28.58,20.32 47.93,20.32 19.35,0 35.59,-6.87 48.77,-20.67 12.69,-13.8 19.07,-32.4 19.07,-55.63l0 -144.3 48.28 0 0 154.84c0,31.01 -10.47,57.23 -31.49,78.67 -22.26,22.2 -50.43,33.3 -84.63,33.3 -34.13,0 -62.22,-11.1 -84.21,-33.3 -21.3,-21.44 -31.91,-47.66 -31.91,-78.67zm346.78 106.55l0 -215.6 -76.58 0 0 -45.79 201.45 0 0 45.79 -76.59 0 0 215.6 -48.28 0zm143.74 -353.78l95.31 -218.1 -59.93 0 0 -43.29 108.36 0 110.58 261.39 -52.03 0 -19.91 -49.11 -110.78 0 -19.98 49.11 -51.61 0zm-699.68 38.23l0 -34.55c-34.2,-4.92 -62.5,-19.98 -85.05,-45.3 -22.41,-24.98 -33.58,-54.59 -33.58,-89 0,-38.36 13.53,-70.69 40.65,-96.98 27.26,-26.16 60.42,-39.2 99.62,-39.2 39.2,0 72.28,13.04 99.41,39.2 27.26,26.29 40.86,58.62 40.86,96.98 0,34.41 -11.24,64.03 -33.72,89 -22.48,25.32 -50.78,40.38 -84.91,45.3l0 34.55 -43.29 0zm175.72 -38.23l95.32 -218.1 -59.93 0 0 -43.29 108.36 0 110.58 261.39 -52.03 0 -19.91 -49.11 -110.78 0 -19.98 49.11 -51.61 0zm291.29 0l0 -111.13 -31.08 0 0 -45.79 31.08 0 0 -104.47 129.65 0c28.37,0 50.08,6.94 65.14,20.74 14.15,13.11 21.23,31.36 21.23,54.67 0,43.01 -22.06,67.5 -66.04,73.6l69.51 112.38 -57.16 0 -65.84 -111.13 -47.8 0 0 111.13 -48.7 0z"/>
 </g>
</svg>
