<?xml version="1.0" encoding="UTF-8"?>
<!DOCTYPE svg PUBLIC "-//W3C//DTD SVG 1.1//EN" "http://www.w3.org/Graphics/SVG/1.1/DTD/svg11.dtd">
<!-- Creator: CorelDRAW 2018 (64-Bit) -->
<svg xmlns="http://www.w3.org/2000/svg" xml:space="preserve" width="72.3321mm" height="83.5229mm" version="1.1" style="shape-rendering:geometricPrecision; text-rendering:geometricPrecision; image-rendering:optimizeQuality; fill-rule:evenodd; clip-rule:evenodd"
viewBox="0 0 1979.36 2285.59"
 xmlns:xlink="http://www.w3.org/1999/xlink">
 <defs>
  <style type="text/css">
   <![CDATA[
    .fil0 {fill:black}
    .fil2 {fill:black;fill-rule:nonzero}
    .fil1 {fill:white;fill-rule:nonzero}
   ]]>
  </style>
 </defs>
 <g id="Layer_x0020_1">
  <metadata id="CorelCorpID_0Corel-Layer"/>
  <path class="fil0" d="M989.68 0c164.95,95.23 329.9,190.47 494.85,285.7 164.94,95.23 329.89,190.47 494.83,285.7 0,190.47 0,380.93 0,571.4 0,190.47 0,380.94 0,571.4 -164.94,95.24 -329.89,190.47 -494.83,285.7 -164.95,95.24 -329.9,190.47 -494.85,285.7 -164.95,-95.23 -329.9,-190.47 -494.85,-285.7 -164.94,-95.23 -329.89,-190.46 -494.83,-285.7 0,-190.46 0,-380.93 0,-571.4 0,-190.47 0,-380.93 0,-571.4 164.94,-95.23 329.89,-190.47 494.83,-285.7 164.95,-95.23 329.9,-190.47 494.85,-285.7z"/>
  <path class="fil1" d="M1380.15 1665.88c-130.17,75.15 -260.32,150.31 -390.47,225.49 -130.14,-75.18 -260.3,-150.34 -390.47,-225.49l27 0 363.47 209.85 363.47 -209.85 27 0z"/>
  <path class="fil1" d="M993.08 396.19c214.96,124.11 429.94,248.2 644.9,372.34l0 475.17 -13.58 0 0 -467.37 -317.36 -183.23 -317.36 -183.23 -634.71 366.46 0 467.37 -13.58 0 0 -475.17c216.08,-124.79 432.18,-249.55 648.29,-374.29l3.4 1.96z"/>
  <path class="fil1" d="M1830.35 1337.62l0 -17.24c-17.07,-2.46 -31.19,-9.97 -42.45,-22.61 -11.18,-12.46 -16.76,-27.25 -16.76,-44.42 0,-19.15 6.75,-35.28 20.29,-48.4 13.61,-13.06 30.16,-19.57 49.72,-19.57 19.56,0 36.08,6.51 49.62,19.57 13.61,13.12 20.39,29.26 20.39,48.4 0,17.17 -5.61,31.96 -16.83,44.42 -11.22,12.64 -25.34,20.15 -42.38,22.61l0 17.24 -21.61 0z"/>
  <path class="fil1" d="M647.34 1564.31l0 -78.65 -22 0 0 -32.4 22 0 0 -73.94 91.75 0c20.08,0 35.45,4.91 46.1,14.68 10.02,9.28 15.02,22.19 15.02,38.69 0,30.44 -15.61,47.77 -46.74,52.09l49.19 79.53 -40.45 0 -46.59 -78.65 -33.83 0 0 78.65 -34.46 0z"/>
  <polygon class="fil1" points="441.19,1564.31 508.64,1409.96 466.23,1409.96 466.23,1379.32 542.91,1379.32 621.17,1564.31 584.34,1564.31 570.26,1529.55 491.85,1529.55 477.71,1564.31 "/>
  <path class="fil1" d="M316.83 1591.36l0 -24.45c-24.2,-3.49 -44.23,-14.14 -60.19,-32.06 -15.86,-17.67 -23.76,-38.64 -23.76,-62.99 0,-27.15 9.57,-50.03 28.77,-68.63 19.29,-18.51 42.76,-27.74 70.5,-27.74 27.74,0 51.16,9.23 70.35,27.74 19.29,18.61 28.92,41.49 28.92,68.63 0,24.35 -7.95,45.32 -23.86,62.99 -15.91,17.92 -35.94,28.57 -60.09,32.06l0 24.45 -30.63 0z"/>
  <polygon class="fil1" points="812,1564.31 879.45,1409.96 837.03,1409.96 837.03,1379.32 913.72,1379.32 991.97,1564.31 955.15,1564.31 941.06,1529.55 862.66,1529.55 848.52,1564.31 "/>
  <polygon class="fil1" points="1476.87,1564.31 1476.87,1411.73 1422.67,1411.73 1422.67,1379.32 1565.24,1379.32 1565.24,1411.73 1511.04,1411.73 1511.04,1564.31 "/>
  <path class="fil1" d="M1231.45 1488.9l0 -109.58 34.17 0 0 102.12c0,16.44 4.71,29.7 14.09,39.62 8.93,9.57 20.23,14.38 33.92,14.38 13.7,0 25.19,-4.86 34.52,-14.63 8.98,-9.77 13.5,-22.93 13.5,-39.37l0 -102.12 34.17 0 0 109.58c0,21.94 -7.41,40.5 -22.29,55.67 -15.76,15.71 -35.69,23.57 -59.9,23.57 -24.15,0 -44.04,-7.85 -59.6,-23.57 -15.07,-15.17 -22.58,-33.73 -22.58,-55.67z"/>
  <path class="fil1" d="M1085.59 1591.36l0 -24.45c-24.2,-3.49 -44.23,-14.14 -60.19,-32.06 -15.86,-17.67 -23.76,-38.64 -23.76,-62.99 0,-27.15 9.57,-50.03 28.77,-68.63 19.29,-18.51 42.76,-27.74 70.5,-27.74 27.74,0 51.16,9.23 70.35,27.74 19.29,18.61 28.91,41.49 28.91,68.63 0,24.35 -7.95,45.32 -23.86,62.99 -15.9,17.92 -35.94,28.57 -60.09,32.06l0 24.45 -30.63 0z"/>
  <path class="fil1" d="M1592.05 1488.9l0 -109.58 34.17 0 0 102.12c0,16.44 4.71,29.7 14.09,39.62 8.93,9.57 20.23,14.38 33.92,14.38 13.7,0 25.19,-4.86 34.52,-14.63 8.98,-9.77 13.5,-22.93 13.5,-39.37l0 -102.12 34.17 0 0 109.58c0,21.94 -7.41,40.5 -22.29,55.67 -15.76,15.71 -35.69,23.57 -59.9,23.57 -24.15,0 -44.04,-7.85 -59.6,-23.57 -15.07,-15.17 -22.58,-33.73 -22.58,-55.67z"/>
  <path class="fil1" d="M994.49 1147.61l0 180.33 76.89 -44.39 10.83 -41.14c-4.11,-0.19 -7.02,-4.9 -7.02,-12.43 0,-9.86 4.99,-20.8 11.13,-24.44 6.15,-3.64 11.13,1.4 11.13,11.26 0,8.83 -4,18.53 -9.25,23.07l10.64 27.82 51.82 -29.92 0 -180.33 -156.17 90.16z"/>
  <polygon class="fil1" points="833.51,1047.82 989.68,1137.99 1145.85,1047.82 989.68,957.66 "/>
  <polygon class="fil1" points="828.7,1057.44 828.7,1237.77 984.87,1327.94 984.87,1147.61 "/>
  <path class="fil1" d="M993.08 153.53c285.01,164.55 570.04,329.08 855.04,493.67l0 365.38 -13.58 0 0 -357.59 -422.43 -243.89 -422.43 -243.89 -844.86 487.78 0 975.6 844.86 487.78 383.46 -221.4 26.97 0c-136.82,79 -273.63,158.01 -410.43,237.04 -286.1,-165.28 -572.25,-330.49 -858.44,-495.62l0 -991.2c286.13,-165.24 572.28,-330.44 858.44,-495.62l3.4 1.96z"/>
  <path class="fil2" d="M1814.46 1292.54l0 -32.99 -9.23 0 0 -13.59 9.23 0 0 -31.01 38.48 0c8.42,0 14.87,2.06 19.34,6.16 4.2,3.89 6.3,9.31 6.3,16.22 0,12.77 -6.55,20.04 -19.6,21.85l20.63 33.36 -16.97 0 -19.54 -32.99 -14.19 0 0 32.99 -14.45 0z"/>
 </g>
</svg>
