<?xml version="1.0" encoding="UTF-8"?>
<!DOCTYPE svg PUBLIC "-//W3C//DTD SVG 1.1//EN" "http://www.w3.org/Graphics/SVG/1.1/DTD/svg11.dtd">
<!-- Creator: CorelDRAW 2018 (64-Bit) -->
<svg xmlns="http://www.w3.org/2000/svg" xml:space="preserve" width="271.154mm" height="52.2804mm" version="1.1" style="shape-rendering:geometricPrecision; text-rendering:geometricPrecision; image-rendering:optimizeQuality; fill-rule:evenodd; clip-rule:evenodd"
viewBox="0 0 26756.46 5158.83"
 xmlns:xlink="http://www.w3.org/1999/xlink">
 <defs>
  <style type="text/css">
   <![CDATA[
    .fil0 {fill:black}
   ]]>
  </style>
 </defs>
 <g id="Layer_x0020_1">
  <metadata id="CorelCorpID_0Corel-Layer"/>
  <path class="fil0" d="M5774.22 4100.41l0 -1095.75 -306.44 0 0 -451.4 306.44 0 0 -1030.12 1278.33 0c279.75,0 493.81,68.41 642.24,204.56 139.56,129.26 209.28,309.16 209.28,538.99 0,424.03 -217.47,665.47 -651.12,725.68l685.33 1108.05 -563.59 0 -649.07 -1095.75 -471.32 0 0 1095.75 -480.09 0z"/>
  <polygon class="fil0" points="2902.11,4100.41 3841.96,1950 3251,1950 3251,1523.14 4319.37,1523.14 5409.61,4100.41 4896.62,4100.41 4700.31,3616.12 3607.98,3616.12 3410.99,4100.41 "/>
  <path class="fil0" d="M1169.63 4477.26l0 -340.58c-337.23,-48.56 -616.29,-196.99 -838.6,-446.69 -220.96,-246.22 -331.03,-538.25 -331.03,-877.53 0,-378.22 133.35,-697 400.8,-956.19 268.81,-257.89 595.75,-386.47 982.2,-386.47 386.47,0 712.71,128.58 980.16,386.47 268.81,259.19 402.85,577.98 402.85,956.19 0,339.28 -110.81,631.31 -332.44,877.53 -221.58,249.7 -500.64,398.13 -837.19,446.69l0 340.58 -426.75 0z"/>
  <polygon class="fil0" points="8068.28,4100.41 9008.03,1950 8417.06,1950 8417.06,1523.14 9485.44,1523.14 10575.72,4100.41 10062.75,4100.41 9866.44,3616.12 8774.15,3616.12 8577.12,4100.41 "/>
  <polygon class="fil0" points="22861.84,3960.01 22861.84,1834.23 22106.74,1834.23 22106.74,1382.78 24093.01,1382.78 24093.01,1834.23 23337.9,1834.23 23337.9,3960.01 "/>
  <path class="fil0" d="M19442.66 2909.44l0 -1526.66 476.04 0 0 1422.73c0,229.09 65.62,413.78 196.31,551.98 124.47,133.35 281.79,200.34 472.57,200.34 190.84,0 350.89,-67.67 480.89,-203.82 125.16,-136.08 188.11,-319.41 188.11,-548.5l0 -1422.73 475.99 0 0 1526.66c0,305.76 -103.24,564.27 -310.48,775.65 -219.57,218.84 -497.27,328.3 -834.5,328.3 -336.49,0 -613.5,-109.45 -830.29,-328.3 -210.02,-211.38 -314.63,-469.9 -314.63,-775.65z"/>
  <path class="fil0" d="M17410.52 4336.9l0 -340.58c-337.24,-48.55 -616.29,-196.99 -838.55,-446.68 -220.95,-246.23 -331.09,-538.26 -331.09,-877.54 0,-378.21 133.42,-697 400.86,-956.19 268.76,-257.89 595.69,-386.47 982.2,-386.47 386.41,0 712.71,128.58 980.1,386.47 268.81,259.19 402.86,577.99 402.86,956.19 0,339.28 -110.81,631.31 -332.39,877.54 -221.64,249.69 -500.69,398.13 -837.18,446.68l0 340.58 -426.81 0z"/>
  <path class="fil0" d="M24466.49 2909.44l0 -1526.66 476.04 0 0 1422.73c0,229.09 65.63,413.78 196.31,551.98 124.48,133.35 281.8,200.34 472.64,200.34 190.78,0 350.88,-67.67 480.83,-203.82 125.15,-136.08 188.11,-319.41 188.11,-548.5l0 -1422.73 476.04 0 0 1526.66c0,305.76 -103.3,564.27 -310.53,775.65 -219.58,218.84 -497.22,328.3 -834.45,328.3 -336.5,0 -613.56,-109.45 -830.36,-328.3 -210.01,-211.38 -314.63,-469.9 -314.63,-775.65z"/>
  <path class="fil0" d="M13467.3 2646.43l0 2512.41 1071.22 -618.51 150.89 -573.15c-57.2,-2.67 -97.73,-68.35 -97.73,-173.19 0,-137.29 69.5,-289.76 155.1,-340.48 85.66,-50.71 155.1,19.47 155.1,156.81 0,123 -55.78,258.12 -128.97,321.41l148.32 387.66 721.87 -416.74 0 -2512.41 -2175.79 1256.2z"/>
  <polygon class="fil0" points="11224.52,1256.14 13400.31,2512.4 15576.1,1256.14 13400.31,0 "/>
  <polygon class="fil0" points="11157.47,1390.23 11157.47,3902.64 13333.26,5158.83 13333.26,2646.43 "/>
 </g>
</svg>
