<?xml version="1.0" encoding="UTF-8"?>
<!DOCTYPE svg PUBLIC "-//W3C//DTD SVG 1.1//EN" "http://www.w3.org/Graphics/SVG/1.1/DTD/svg11.dtd">
<!-- Creator: CorelDRAW 2018 (64-Bit) -->
<svg xmlns="http://www.w3.org/2000/svg" xml:space="preserve" width="77.7044mm" height="29.3403mm" version="1.1" style="shape-rendering:geometricPrecision; text-rendering:geometricPrecision; image-rendering:optimizeQuality; fill-rule:evenodd; clip-rule:evenodd"
viewBox="0 0 7323.32 2765.2"
 xmlns:xlink="http://www.w3.org/1999/xlink">
 <defs>
  <style type="text/css">
   <![CDATA[
    .fil0 {fill:black}
    .fil4 {fill:white}
    .fil2 {fill:black;fill-rule:nonzero}
    .fil1 {fill:#FF6600;fill-rule:nonzero}
    .fil3 {fill:white;fill-rule:nonzero}
   ]]>
  </style>
 </defs>
 <g id="Layer_x0020_1">
  <metadata id="CorelCorpID_0Corel-Layer"/>
  <polygon class="fil0" points="2599.89,435.43 2599.89,1222.31 3281.35,1615.75 3281.35,828.87 "/>
  <polygon class="fil0" points="2620.88,393.45 3302.35,786.89 3983.81,393.45 3302.35,0 "/>
  <path class="fil0" d="M3323.34 828.87l0 786.88c653.95,-377.56 278.25,-160.65 681.46,-393.44l0 -786.88 -681.46 393.44z"/>
  <path class="fil1" d="M5930.82 2318.12l0 -478.15 149.11 0 0 445.59c0,71.76 20.56,129.61 61.48,172.88 38.99,41.77 88.26,62.76 148.02,62.76 59.77,0 109.9,-21.21 150.6,-63.83 39.21,-42.63 58.91,-100.05 58.91,-171.81l0 -445.59 149.1 0 0 478.15c0,95.75 -32.35,176.74 -97.25,242.93 -68.77,68.55 -155.74,102.83 -261.36,102.83 -105.39,0 -192.16,-34.28 -260.06,-102.83 -65.77,-66.19 -98.54,-147.17 -98.54,-242.93zm-2209.94 447.08l0 -106.68c-105.61,-15.21 -193.02,-61.7 -262.63,-139.89 -69.2,-77.12 -103.69,-168.6 -103.69,-274.86 0,-118.46 41.78,-218.29 125.54,-299.48 84.19,-80.77 186.59,-121.04 307.63,-121.04 121.04,0 223.22,40.27 306.99,121.04 84.19,81.18 126.18,181.02 126.18,299.48 0,106.26 -34.71,197.74 -104.11,274.86 -69.41,78.19 -156.81,124.68 -262.21,139.89l0 106.68 -133.68 0zm636.47 -447.08l0 -478.15 149.1 0 0 445.59c0,71.76 20.56,129.61 61.49,172.88 38.98,41.77 88.25,62.76 148.02,62.76 59.76,0 109.9,-21.21 150.6,-63.83 39.2,-42.63 58.9,-100.05 58.9,-171.81l0 -445.59 149.11 0 0 478.15c0,95.75 -32.35,176.74 -97.26,242.93 -68.76,68.55 -155.74,102.83 -261.35,102.83 -105.4,0 -192.16,-34.28 -260.07,-102.83 -65.76,-66.19 -98.53,-147.17 -98.53,-242.93zm1070.9 329.05l0 -665.81 -236.5 0 0 -141.39 622.11 0 0 141.39 -236.51 0 0 665.81 -149.1 0z"/>
  <path class="fil2" d="M2527.01 2647.17l294.34 -673.52 -185.09 0 0 -133.68 334.62 0 341.47 807.2 -160.67 0 -61.48 -151.67 -342.12 0 -61.69 151.67 -159.38 0zm-2160.68 118.03l0 -106.68c-105.6,-15.21 -193.01,-61.7 -262.63,-139.89 -69.2,-77.12 -103.69,-168.6 -103.69,-274.86 0,-118.46 41.78,-218.29 125.54,-299.48 84.19,-80.77 186.59,-121.04 307.63,-121.04 121.03,0 223.22,40.27 306.99,121.04 84.19,81.18 126.18,181.02 126.18,299.48 0,106.26 -34.71,197.74 -104.11,274.86 -69.41,78.19 -156.82,124.68 -262.22,139.89l0 106.68 -133.68 0zm542.64 -118.03l294.35 -673.52 -185.1 0 0 -133.68 334.62 0 341.47 807.2 -160.67 0 -61.48 -151.67 -342.11 0 -61.7 151.67 -159.38 0zm899.53 0l0 -343.2 -95.97 0 0 -141.38 95.97 0 0 -322.62 400.38 0c87.62,0 154.67,21.42 201.16,64.05 43.7,40.49 65.55,96.84 65.55,168.81 0,132.82 -68.12,208.43 -203.94,227.28l214.65 347.05 -176.52 0 -203.3 -343.2 -147.61 0 0 343.2 -150.38 0z"/>
  <path class="fil2" d="M6970.69 1657.98l0 -75.25c-74.48,-10.73 -136.13,-43.51 -185.23,-98.66 -48.8,-54.39 -73.13,-118.91 -73.13,-193.84 0,-83.55 29.46,-153.96 88.53,-211.21 59.37,-56.96 131.6,-85.37 216.96,-85.37 85.36,0 157.43,28.41 216.5,85.37 59.37,57.25 88.99,127.67 88.99,211.21 0,74.93 -24.48,139.46 -73.43,193.84 -48.95,55.14 -110.59,87.93 -184.93,98.66l0 75.25 -94.27 0z"/>
  <path class="fil3" d="M6901.3 1461.3l0 -143.94 -40.25 0 0 -59.3 40.25 0 0 -135.32 167.93 0c36.75,0 64.87,8.99 84.37,26.87 18.33,16.98 27.49,40.61 27.49,70.8 0,55.71 -28.58,87.42 -85.54,95.33l90.03 145.56 -74.04 0 -85.26 -143.94 -61.91 0 0 143.94 -63.07 0z"/>
  <circle class="fil4" transform="matrix(0.463154 -0.274281 -0 0.742499 3724.07 1159.53)" r="104.88"/>
  <polygon class="fil4" points="3718.49,1195.47 3778.95,1353.5 3658.04,1425.1 "/>
 </g>
</svg>
